# xmcd CD database file
#
# Track frame offsets:
#	150
#	32991
#	64425
#	98546
#	135840
#	154834
#	176318
#	205089
#	220379
#	239488
#	260508
#	272258
#
# Disc length: 3814 seconds
#
# Revision: 1
# Processed by: cddbd v1.5.1PL0 Copyright (c) Steve Scherf et al.
# Submitted via: CDex 1.51
#
DISCID=a40ee40c
DTITLE=Poco - Littleton, Co. 07-03-01 disc 1
DYEAR=2001
DGENRE=country rock
TTITLE0=Legend
TTITLE1=Call It Love
TTITLE2=Rose Of Cimarron
TTITLE3=Spellbound
TTITLE4=Do What You Do
TTITLE5=Rough Edges
TTITLE6=instrumental
TTITLE7=Keep On Tryin'
TTITLE8=It Must Be Love
TTITLE9=What Do People Know?
TTITLE10=Bad Weather
TTITLE11=Save A Corner Of Your Heart
EXTD=YEAR: 2001
EXTT0=
EXTT1=
EXTT2=
EXTT3=
EXTT4=
EXTT5=
EXTT6=
EXTT7=
EXTT8=
EXTT9=
EXTT10=
EXTT11=
PLAYORDER=
